<?xml version="1.0" encoding="UTF-8" standalone="no" ?>
<!DOCTYPE svg PUBLIC "-//W3C//DTD SVG 1.1//EN" "http://www.w3.org/Graphics/SVG/1.1/DTD/svg11.dtd">
<svg xmlns="http://www.w3.org/2000/svg" xmlns:xlink="http://www.w3.org/1999/xlink" version="1.1" width="500" height="500" viewBox="0 0 500 500" xml:space="preserve">
<desc>Created with Fabric.js 4.6.0</desc>
<defs>
</defs>
<g transform="matrix(1 0 0 1 250 250)" id="objYCiJQr52Z5SzK9jGri"  >
<path style="stroke: none; stroke-width: 1; stroke-dasharray: none; stroke-linecap: butt; stroke-dashoffset: 0; stroke-linejoin: miter; stroke-miterlimit: 4; fill: rgb(255,214,91); fill-rule: nonzero; opacity: 1;" vector-effect="non-scaling-stroke"  transform=" translate(-100, -97.06)" d="M 171.25714 73.5469 C 168.56215 77.49889999999999 165.28216999999998 81.01589999999999 161.54318999999998 83.9759 C 177.24410999999998 95.46289999999999 185.29306999999997 110.74879999999999 185.29306999999997 129.41379999999998 C 185.29306999999997 166.6257 151.93923999999998 194.11669999999998 94.11752999999997 194.11669999999998 C 64.17567999999997 194.11669999999998 40.03579999999997 186.41869999999997 23.140879999999967 172.7737 C 8.292949999999967 160.7807 -3.197442310920451e-14 144.6908 -3.197442310920451e-14 129.4108 C -3.197442310920451e-14 111.45679999999999 6.292969999999968 93.62989999999999 18.723909999999968 76.01989999999999 C 21.702899999999968 71.79889999999999 28.284859999999966 73.1929 29.296859999999967 78.25789999999999 C 32.56483999999997 94.59389999999999 47.58776999999996 102.9408 76.47261999999996 102.9408 C 90.79554999999996 102.9408 101.46449999999996 98.01079999999999 108.99545999999997 87.92179999999999 C 94.59252999999997 79.6848 85.29557999999997 64.24279999999999 85.29557999999997 47.05889999999999 C 85.29557999999997 21.06899999999999 106.36546999999997 -1.4210854715202004e-14 132.35433999999998 -1.4210854715202004e-14 C 154.42022999999998 -1.4210854715202004e-14 173.21313999999998 15.270999999999987 178.15111 36.19189999999998 L 186.09206999999998 37.184899999999985 C 194.03703 38.17789999999999 199.99999999999997 44.931899999999985 199.99999999999997 52.93989999999999 C 199.99999999999997 60.82389999999999 194.63402999999997 67.69789999999999 186.98406999999997 69.60989999999998 z M 110.93345 153.00379 C 90.07955 155.98279000000002 77.09761999999999 151.18079 70.57764999999999 138.90779 C 85.00357999999999 139.41479 96.82551999999998 137.00379 105.96746999999999 131.51779000000002 C 108.75345999999999 129.84579000000002 109.65745 126.23179000000002 107.98445999999998 123.44779000000003 C 106.31346999999998 120.66179000000002 102.70048999999999 119.75779000000003 99.91449999999999 121.43079000000003 C 92.92853 125.62179000000003 83.31157999999999 127.58279000000003 70.98964 127.15179000000003 C 68.92665 127.07879000000004 66.88065999999999 127.55179000000004 65.05866999999999 128.51879000000002 C 59.31969999999999 131.56779000000003 57.139709999999994 138.69079000000002 60.18768999999999 144.42779000000002 C 69.32763999999999 161.63379 87.26554999999999 168.26979 112.59342999999998 164.65079000000003 C 115.81040999999999 164.19179000000003 118.04539999999999 161.21279000000004 117.58440999999999 157.99679000000003 C 117.12540999999999 154.77979000000002 114.14643 152.54679000000004 110.93043999999999 153.00579000000005 z M 151.47224 44.121 C 155.53322 44.121 158.8252 40.830000000000005 158.8252 36.769000000000005 C 158.8252 32.70700000000001 155.53222 29.416000000000004 151.47224 29.416000000000004 C 147.41026 29.416000000000004 144.11928 32.707 144.11928 36.769000000000005 C 144.11928 40.830000000000005 147.41026 44.12100000000001 151.47224 44.12100000000001 z" stroke-linecap="round" />
</g>
<g transform="matrix(1 0 0 1 250 250)" id="GaRwCbrcqdWY395cNnGky"  >
<path style="stroke: rgb(185,148,230); stroke-width: 0; stroke-dasharray: none; stroke-linecap: butt; stroke-dashoffset: 0; stroke-linejoin: miter; stroke-miterlimit: 4; fill: none; fill-rule: nonzero; opacity: 1;" vector-effect="non-scaling-stroke"  transform=" translate(-200, -200)" d="M 0 0 L 400 0 L 400 400 L 0 400 z" stroke-linecap="round" />
</g>
</svg>