<?xml version="1.0" encoding="UTF-8"?>
<svg version="1.1" viewBox="0 0 401.65 509.14" xmlns="http://www.w3.org/2000/svg">
<g transform="translate(300.83 -78.011)">
<path d="m-298.78 251.48c-0.2963 165.5 61.993 238.23 196.75 333.25 141.45-93.062 201.02-170.93 200.81-333.58l-0.21394-171.15-397.04 0.33826-0.3064 171.14z" fill="#a00" stroke="#000" stroke-width="4.0299"/>
<path d="m93.357 166.4c-37.937 23.286-74.429 57.854-96.195 84.546-51.79 63.512-82.69 105.61-114.28 180.62-6.8432-1.5286-14.401-2.5799-21.781-1.0312-9.7751 2.0512-23.443 14.735-29.312 23.844s-9.6258 21.053-6.9062 26.312c6.9135 8.6732 29.485 16.146 29.812 20.312 0.32725 4.1666-6.2598 13.241-7.5 12.906-0.5269-0.1422-2.812-0.88441-2.625-2.3438 0.10838-0.84576 3.2992-6.0206 0.0625-7.5938-18.389-11.506-41.743-22.564-38.375-27.25 4.9096-16.066 14.516-33.484 22.094-47.719 48.514-91.134 99.527-160.14 157.71-203.66 58.18-43.519 77.977-54.875 107.3-58.951zm-214.76 248.3c-2.3646 0-4.2812 1.9166-4.2812 4.2812s1.9166 4.2812 4.2812 4.2812 4.2812-1.9166 4.2812-4.2812-1.9166-4.2812-4.2812-4.2812z" fill="#fff" stroke="#000" stroke-width="3"/>
<path d="m-156.96 427.79c13.35-22.181 25.246-45.264 40.057-66.561 31.516-48.879 69.664-95.956 114.58-133.06 4.0503-3.5565 7.625-6.954 14.118-13.881-25.835 17.175-48.484 38.844-69.09 61.973-15.159 16.609-30.095 33.469-42.904 51.994-23.127 31.834-48.485 68.565-63.084 101.16-0.77088 3.9977 5.7893 0.0896 6.3195-1.6245z"/>
<path d="m-158.42 426.76c13.35-22.181 25.246-45.264 40.057-66.561 31.516-48.879 69.664-95.956 114.58-133.06 4.0503-3.5565 7.625-6.954 14.118-13.881-25.835 17.175-48.484 38.844-69.09 61.973-15.159 16.609-30.095 33.469-42.904 51.994-23.127 31.834-48.485 68.565-63.084 101.16-0.77088 3.9977 5.7893 0.0896 6.3195-1.6245z" color="#000000" fill="#666"/>
<path d="m-293.36 166.4c37.937 23.286 74.429 57.854 96.195 84.546 51.79 63.512 82.69 105.61 114.28 180.62 6.8432-1.5286 14.401-2.5799 21.781-1.0312 9.7751 2.0512 23.443 14.735 29.312 23.844s9.6258 21.053 6.9062 26.312c-6.9135 8.6732-29.485 16.146-29.812 20.312-0.32725 4.1666 6.2598 13.241 7.5 12.906 0.5269-0.1422 2.812-0.88441 2.625-2.3438-0.10838-0.84576-3.2992-6.0206-0.0625-7.5938 18.389-11.506 41.743-22.564 38.375-27.25-4.9096-16.066-14.516-33.484-22.094-47.719-48.514-91.134-99.527-160.14-157.71-203.66-58.18-43.519-77.977-54.875-107.3-58.951zm214.76 248.3c2.3646 0 4.2812 1.9166 4.2812 4.2812s-1.9166 4.2812-4.2812 4.2812-4.2812-1.9166-4.2812-4.2812 1.9166-4.2812 4.2812-4.2812z" color="#000000" fill="#fff" stroke="#000" stroke-width="3"/>
<path d="m-44.589 425.77c-13.35-22.181-25.246-45.264-40.057-66.561-31.516-48.879-69.664-95.956-114.58-133.06-4.0503-3.5565-7.625-6.954-14.118-13.881 25.835 17.175 48.484 38.844 69.09 61.973 15.159 16.609 30.095 33.469 42.904 51.994 23.127 31.834 48.485 68.565 63.084 101.16 0.77088 3.9977-5.7893 0.0896-6.3195-1.6245z"/>
<path d="m-43.079 424.76c-13.35-22.181-25.246-45.264-40.057-66.561-31.516-48.879-69.664-95.956-114.58-133.06-4.0503-3.5565-7.625-6.954-14.118-13.881 25.835 17.175 48.484 38.844 69.09 61.973 15.159 16.609 30.095 33.469 42.904 51.994 23.127 31.834 48.485 68.565 63.084 101.16 0.77088 3.9977-5.7893 0.0896-6.3195-1.6245z" fill="#666"/>
<path d="m-100 104.96c-16.404 0-16.851 2.3706-16.851 3.5924 0 1.2484 9.0552 12.331 9.0552 28.091 0 7.3792-1.0493 12.117-2.4073 15.333-0.8581-0.27493-1.7724-0.42591-2.7221-0.42591-4.9214 0-8.9255 3.9857-8.9255 8.907 0 0.92893 0.14282 1.8237 0.40739 2.6666-3.229 1.3866-8.006 2.4814-15.536 2.4814-15.761 0-26.843-9.0552-28.091-9.0552-1.2218 0-3.5924 0.44731-3.5924 16.851s2.3706 16.851 3.5924 16.851c1.2484 0 12.331-9.0552 28.091-9.0552 7.5303 0 12.307 1.0947 15.536 2.4814-0.26457 0.84281-0.40739 1.7376-0.40739 2.6666 0 4.9214 4.0042 8.907 8.9255 8.907 0.9497 0 1.864-0.15098 2.7221-0.42591 1.358 3.2153 2.4073 7.9535 2.4073 15.333 0 15.761-9.0552 26.843-9.0552 28.091 0 1.2218 0.44731 3.5924 16.851 3.5924s16.851-2.3706 16.851-3.5924c0-1.2484-9.0552-12.331-9.0552-28.091 0-7.3964 1.0632-12.136 2.4258-15.351 0.86096 0.27618 1.7702 0.44443 2.7221 0.44443 4.9214 0 8.907-3.9857 8.907-8.907 0-0.92893-0.14389-1.8237-0.40739-2.6666 3.229-1.3866 8.006-2.4814 15.536-2.4814 15.761 0 26.843 9.0552 28.091 9.0552 1.2218 0 3.5924-0.44731 3.5924-16.851s-2.3706-16.851-3.5924-16.851c-1.2484 0-12.331 9.0552-28.091 9.0552-7.5303 0-12.307-1.0948-15.536-2.4814 0.2635-0.84281 0.40739-1.7376 0.40739-2.6666 0-4.9214-3.9857-8.907-8.907-8.907-0.95194 0-1.8611 0.16825-2.7221 0.44443-1.3627-3.2156-2.4258-7.9548-2.4258-15.351 0-15.761 9.0552-26.843 9.0552-28.091 0-1.2218-0.44731-3.5924-16.851-3.5924z" color="#000000" fill="#fff" stroke="#000" stroke-width="3"/>
<path d="m-114.73 108.07c1.3829 2.0601 10.539 16.815 8.9265 34.379-0.73985 8.0565-3.8886 15.787-10.758 20.34-8.8525 5.8675-20.123 5.7131-30.17 3.8147-9.1752-1.7339-16.868-8.3376-18.217-7.6365-1.4073 0.7311-1.1992 14.865-1.1666 21.943 0.01 2.1093 0.70995 7.5403 1.181 7.1684 10.298-8.1299 27.236-11.222 41.166-7.4542 10.279 2.7799 17.019 12.459 17.944 22.896 2.0197 22.782-8.6609 33.441-8.8494 34.552-0.40017 2.3579 31.127 1.7836 29.328 0.13344-1.2934-1.1866-15.096-24.499-6.1047-45.148 3.9315-9.029 13.875-13.277 23.439-13.924 10.908-0.73788 21.436 2.4998 30.722 7.4977 0.65016 0.34992 2.1218 1.9729 2.2972 1.2625 2.2591-9.1482 1.3023-29.468 0.17127-28.812-13.705 7.944-31.692 12.227-46.356 5.1934-8.1225-3.8958-12.249-12.682-13.004-21.582-1.5756-18.584 8.3522-33.113 8.7739-34.687 0.5003-1.8671-30.178-1.2084-29.324 0.0641z" color="#000000" fill="#fff" stroke="#333" stroke-width="2"/>
<path transform="matrix(.59257 0 0 .59257 250.05 -280.8)" d="m-564.34 766.57a26.334 26.334 0 1 1-52.668 0 26.334 26.334 0 1 1 52.668 0z" color="#000000" fill="#fff" stroke="#333" stroke-width="3.3751"/>
</g>
</svg>
