<svg xmlns="http://www.w3.org/2000/svg" viewBox="0 0 24 24" role="img" >
    <title>Van Mildert JCR</title>
    <rect width="24" height="24" fill="#881111"/>
    <path fill="#fff" d="m 2.9427915,0.5 v 9.563208 c 0,0 0.036417,4.350834 2.3412083,7.455834 2.4284167,3.272708 6.5291242,5.863083 6.5291242,5.863083 L 12,23.5 12.186875,23.382125 c 0,0 4.101666,-2.590375 6.529125,-5.862125 2.304792,-3.105 2.341209,-7.456792 2.341209,-7.456792 V 0.5 Z m 0.69575,0.6832917 H 20.361458 v 8.8684163 c 0,0 -0.08625,4.1975 -2.205124,7.053334 -2.21375,2.982333 -5.850625,5.355166 -6.156334,5.552583 -0.305708,-0.197417 -3.9425835,-2.57025 -6.1563335,-5.553542 -2.116,-2.851041 -2.2041667,-7.038 -2.2041667,-7.046625 v -0.0058 z M 12,1.6289167 c -0.253,0 -0.722583,0.2319166 -0.722583,0.2319166 -0.0086,0.3181667 0.09392,0.31625 0.204125,0.56925 0.08338,0.1916667 0.07667,0.6248334 0.07667,0.6248334 v 0.836625 h -0.345 a 0.16195833,0.16195833 0 0 0 -0.16292,0.1629166 v 0.32775 h -0.835667 c 0,0 -0.4331668,0.00479 -0.6257918,-0.078583 -0.253,-0.1102083 -0.250125,-0.2108333 -0.5682917,-0.2022083 0,0 -0.23,0.4676666 -0.23,0.7206666 0,0.253 0.23,0.7225834 0.23,0.7225834 0.3181667,0.00863 0.31625,-0.092 0.5682917,-0.2022084 0.192625,-0.084333 0.6257918,-0.078583 0.6257918,-0.078583 h 0.836624 v 0.32775 c 0,0.090083 0.07188,0.1629167 0.162917,0.1629167 h 0.345001 v 0.8356666 c 0,0 0.0058,0.4331667 -0.07762,0.6257917 -0.110208,0.253 -0.21275,0.2510833 -0.204125,0.56925 0,0 0.469583,0.23 0.722583,0.23 0.253,0 0.722584,-0.23 0.722584,-0.23 C 12.731209,7.4670833 12.628667,7.469 12.518459,7.216 12.435084,7.023375 12.441792,6.5902083 12.441792,6.5902083 v -0.836625 h 0.345 c 0.09008,0 0.162917,-0.071875 0.162917,-0.1629166 V 5.263875 h 0.835666 c 0,0 0.433167,-0.00479 0.625792,0.078583 0.253,0.1102084 0.250125,0.2108334 0.568292,0.20125 0,0 0.23,-0.4695833 0.23,-0.721625 0,-0.253 -0.23,-0.7206666 -0.23,-0.7206666 -0.318167,-0.00958 -0.31625,0.092 -0.568292,0.20125 -0.192625,0.084333 -0.625792,0.079542 -0.625792,0.079542 H 12.94875 v -0.32775 A 0.16195833,0.16195833 0 0 0 12.785834,3.8915417 h -0.345 v -0.836625 c 0,0 -0.0057,-0.4322084 0.07763,-0.6248334 0.110208,-0.2539583 0.21275,-0.2510833 0.204125,-0.56925 0,0 -0.469584,-0.2319166 -0.722584,-0.2319166 M 4.2336665,4.6495833 c -0.1399167,9.584e-4 -0.169625,0.046958 -0.169625,0.046958 0,0 1.8055,1.0829166 5.1673333,5.1452916 C 9.8456665,10.583583 10.419709,11.457583 10.916125,12.299 a 43.474792,43.474792 0 0 0 -2.7235835,4.716917 c -0.068042,0.137041 -0.1514167,0.434125 -0.1514167,0.434125 -0.2913333,0.836625 0.9937917,0.883583 1.4854167,1.423125 l 0.09775,0.106375 0.00192,0.286541 c 0,0 0.215625,-0.01725 0.365125,-0.174416 0.1332055,-0.138 0.1935805,-0.375667 0.026831,-0.499292 a 0.8625,0.8625 0 0 0 -0.023001,-0.01533 l -0.9727083,-0.542417 -0.161,-0.117875 c -0.2482084,-0.18017 0.045042,-0.970795 0.3028333,-1.355086 0.2175417,-0.324875 0.5941667,-0.536667 0.9602505,-0.671792 0.297083,-0.111167 0.527083,-0.14375 0.944917,-0.09775 0.187833,0.02013 0.282708,-0.092 0.346916,-0.239583 C 11.505505,15.3465 11.713459,14.8865 12,14.309583 c 0.285584,0.576917 0.4945,1.036917 0.584584,1.242959 0.06325,0.147583 0.158125,0.259708 0.345,0.239583 0.418791,-0.04504 0.648791,-0.01342 0.945875,0.09775 0.366083,0.136083 0.742708,0.346917 0.96025,0.670833 0.257791,0.38525 0.551041,1.175875 0.302833,1.356042 l -0.161,0.117875 -0.972708,0.542417 c 0,0 -0.01629,0.0096 -0.023,0.01533 -0.16675,0.123625 -0.105417,0.361292 0.02683,0.499292 0.1495,0.157166 0.364167,0.174416 0.364167,0.174416 l 0.0029,-0.286541 0.09679,-0.106375 c 0.492584,-0.539542 1.777709,-0.5865 1.486375,-1.423125 0,0 -0.08338,-0.297084 -0.151416,-0.434125 A 43.474792,43.474792 0 0 0 13.083875,12.299 c 0.495459,-0.841417 1.070459,-1.715417 1.68475,-2.4571667 3.361833,-4.0633333 5.167333,-5.14625 5.167333,-5.14625 0,0 -0.02875,-0.044083 -0.169624,-0.046 C 19.531542,4.6476667 18.990083,4.7665 17.773958,5.4152917 A 14.306958,14.306958 0 0 0 14.100667,8.2586667 30.094542,30.094542 0 0 0 12,10.768542 30.096458,30.096458 0 0 0 9.9002915,8.2577083 14.306958,14.306958 0 0 0 6.2260415,5.41625 C 5.0089582,4.7674583 4.4684582,4.648625 4.2346248,4.6505417 m 3.964625,2.3345 a 0.09583333,0.09583333 0 0 1 0.070917,0.022042 c 0.501208,0.412083 0.9746247,0.8586663 1.415458,1.329208 a 30.30825,30.30825 0 0 1 2.1782922,2.6162503 c -0.03929,0.05367 -0.07762,0.10925 -0.117875,0.162916 A 30.1645,30.1645 0 0 0 9.5447498,8.466625 14.867583,14.867583 0 0 0 8.1474998,7.1537083 0.09583333,0.09583333 0 0 1 8.1350415,7.0195417 a 0.09583333,0.09583333 0 0 1 0.06325,-0.035458 m 7.6034175,0 a 0.09583333,0.09583333 0 0 1 0.06325,0.035458 0.09583333,0.09583333 0 0 1 -0.01246,0.1341666 C 15.357042,7.561 14.891292,8.0018333 14.45525,8.466625 c -0.782958,0.8356667 -1.514166,1.724042 -2.200333,2.647875 -0.04025,-0.05367 -0.07858,-0.10925 -0.117875,-0.162917 a 30.312083,30.312083 0 0 1 2.178292,-2.6162497 c 0.440833,-0.4705416 0.91425,-0.9161666 1.415458,-1.3292083 a 0.09583333,0.09583333 0 0 1 0.07092,-0.022042 m -3.80171,4.149584 c 0.04025,0.05367 0.07858,0.10925 0.117875,0.164833 -0.04025,0.05367 -0.07858,0.10925 -0.117875,0.163875 -0.03929,-0.05462 -0.07763,-0.110208 -0.117875,-0.163875 0.03929,-0.05558 0.07762,-0.111167 0.117875,-0.164833 m -0.962166,1.38 c 0.03737,0.06325 0.07092,0.124583 0.106375,0.187833 -0.07667,0.117875 -0.15525,0.233833 -0.231916,0.352667 -0.438917,0.682333 -0.855792,1.38 -1.2535005,2.086291 a 0.09583333,0.09583333 0 0 1 -0.1312917,0.03546 0.09583333,0.09583333 0 0 1 -0.035458,-0.130334 41.444083,41.444083 0 0 1 1.5457912,-2.532875 m 1.924334,0 c 0.09583,0.14375 0.191667,0.289417 0.286542,0.435084 0.440833,0.686166 0.859625,1.386708 1.25925,2.096833 a 0.09583333,0.09583333 0 0 1 -0.03546,0.130333 0.09583333,0.09583333 0 0 1 -0.131291,-0.03546 41.246667,41.246667 0 0 0 -1.2535,-2.086292 c -0.07667,-0.118832 -0.155252,-0.23479 -0.231919,-0.352665 z m -1.909001,2.349834 a 0.2875,0.2875 0 1 1 0,0.575 0.2875,0.2875 0 1 1 0,-0.575 m 1.893668,0 a 0.2875,0.2875 0 1 1 0,0.575 0.2875,0.2875 0 1 1 0,-0.575"/>
</svg>
